<?xml version="1.0" encoding="UTF-8"?>
<svg version="1.1" xmlns="http://www.w3.org/2000/svg" width="1024" height="1024">
<path d="M0 0 C1.84461067 -0.01058945 1.84461067 -0.01058945 3.72648621 -0.02139282 C7.67444638 -0.03891393 11.62232153 -0.04608497 15.5703125 -0.046875 C16.58009218 -0.04731686 16.58009218 -0.04731686 17.61027145 -0.04776764 C37.79184509 -0.04919447 57.69797201 0.16863541 77.6953125 3.203125 C79.09147112 3.40918129 80.48762998 3.6152359 81.88378906 3.82128906 C101.77321758 6.79842488 121.3082528 10.80799525 140.6953125 16.203125 C141.68354004 16.47737305 142.67176758 16.75162109 143.68994141 17.03417969 C190.57619138 30.24980226 235.75766209 51.24099002 275.6953125 79.203125 C276.27394043 79.60450684 276.85256836 80.00588867 277.44873047 80.41943359 C286.46204682 86.68384972 295.13788146 93.33198857 303.6953125 100.203125 C305.16677734 101.38068359 305.16677734 101.38068359 306.66796875 102.58203125 C311.95922637 106.86117771 317.09069742 111.27561349 322.11328125 115.8671875 C323.51788103 117.13791469 324.92873718 118.40237171 326.36938477 119.63208008 C332.09229275 124.53019661 337.42941139 129.78450283 342.7409668 135.1184082 C344.2552383 136.63804168 345.7747868 138.15225017 347.29492188 139.66601562 C352.63830759 145.00536592 357.81612929 150.43157435 362.6953125 156.203125 C363.60774389 157.25939889 364.52048742 158.31540326 365.43359375 159.37109375 C391.4995886 189.94622883 412.59579335 223.39582244 430.6953125 259.203125 C431.0675293 259.9367627 431.43974609 260.67040039 431.82324219 261.42626953 C453.59190548 304.74486791 466.00285895 352.38144231 472.6953125 400.203125 C472.96432373 402.09345459 472.96432373 402.09345459 473.23876953 404.02197266 C478.31729222 441.59900595 478.0173199 481.67429565 472.6953125 519.203125 C472.55319336 520.22977264 472.55319336 520.22977264 472.40820312 521.27716064 C463.74341202 583.70577711 443.56152732 645.73081783 409.6953125 699.203125 C409.19290039 699.9986377 408.69048828 700.79415039 408.17285156 701.61376953 C395.75542427 721.17960767 382.3640868 739.78132033 367.24731445 757.34765625 C366.10720282 758.71069675 364.99497296 760.09718358 363.89916992 761.49609375 C357.5519968 769.52901261 350.47593907 776.69446939 343.21118164 783.89306641 C341.12779506 785.95809824 339.05262085 788.03111896 336.97851562 790.10546875 C335.63328426 791.44578616 334.28759673 792.78564591 332.94140625 794.125 C332.33284286 794.73245056 331.72427948 795.33990112 331.09727478 795.96575928 C305.49913497 821.2875621 274.99111156 842.57893366 243.6953125 860.203125 C242.88578125 860.66396484 242.07625 861.12480469 241.2421875 861.59960938 C165.3585693 904.65781394 78.02546301 924.13857798 -8.9296875 919.453125 C-9.7277179 919.41022339 -10.52574829 919.36732178 -11.34796143 919.32312012 C-100.40096289 914.38443551 -186.90806695 882.62205168 -258.3046875 829.203125 C-258.90071777 828.7601709 -259.49674805 828.3172168 -260.11083984 827.86083984 C-272.23282127 818.82748237 -283.56072827 808.91165254 -294.64453125 798.64453125 C-296.80987456 796.65724847 -299.00313505 794.73061842 -301.2421875 792.828125 C-309.23609838 785.88780488 -316.7891255 778.21498125 -323.640625 770.1484375 C-325.60607764 767.85079568 -327.64198621 765.62439377 -329.6796875 763.390625 C-334.40508833 758.1349028 -338.92629435 752.75048484 -343.3046875 747.203125 C-343.87074707 746.48785645 -344.43680664 745.77258789 -345.02001953 745.03564453 C-399.3438218 676.02821011 -433.29449868 591.91701839 -442.3046875 495.203125 C-442.38936279 493.97239258 -442.47403809 492.74166016 -442.5612793 491.47363281 C-443.24627223 481.12885398 -443.50817176 470.81939479 -443.4921875 460.453125 C-443.49125092 459.65465149 -443.49031433 458.85617798 -443.48934937 458.0335083 C-443.24318828 360.10019834 -411.57548632 266.02963322 -336.3046875 164.203125 C-335.7689209 163.56294434 -335.2331543 162.92276367 -334.68115234 162.26318359 C-324.61062996 150.26808602 -324.61062996 150.26808602 -318.98803711 144.88916016 C-317.26322971 143.16160107 -315.69531599 141.35808716 -314.1171875 139.49609375 C-310.36255178 135.17912666 -306.31257838 131.2746074 -302.1171875 127.390625 C-301.37106201 126.69557861 -300.62493652 126.00053223 -299.85620117 125.28442383 C-298.36151233 123.89357078 -296.86521431 122.50444472 -295.3671875 121.1171875 C-293.57762641 119.45642058 -291.79813827 117.78597673 -290.0234375 116.109375 C-283.31213532 109.83106006 -276.3010618 104.10046636 -269.01318359 98.51757812 C-267.40976943 97.28397111 -265.8196156 96.03318272 -264.23046875 94.78125 C-247.75396951 81.87008798 -230.47829838 70.57226594 -212.3046875 60.203125 C-210.82405354 59.34403467 -209.34357482 58.48467672 -207.86328125 57.625 C-146.0551067 22.11440086 -71.5657457 0.27460153 0 0 Z M-203.1171875 197.2421875 C-213.05272751 209.71129022 -214.63182003 224.76525586 -213.3046875 240.203125 C-211.96888335 249.49595485 -208.76814445 257.59741783 -203.3046875 265.203125 C-202.5828125 266.234375 -201.8609375 267.265625 -201.1171875 268.328125 C-191.95181373 278.55991019 -176.03338442 286.75938058 -162.3046875 288.203125 C-161.21607422 288.32494141 -161.21607422 288.32494141 -160.10546875 288.44921875 C-145.54048919 289.24367218 -129.86444333 283.23072894 -118.9296875 273.890625 C-107.57209035 263.02446234 -102.50516428 249.94752086 -102.01904297 234.38598633 C-101.82923391 219.84143546 -105.01153034 205.68047144 -115.14526367 194.75683594 C-126.15982978 183.59154218 -141.74482053 176.42628214 -157.6171875 175.890625 C-175.38928256 176.12899885 -191.42898038 184.09295449 -203.1171875 197.2421875 Z M57.69921875 357.8984375 C54.34177756 361.75982211 51.48551815 365.92120276 48.6953125 370.203125 C48.0353125 371.193125 47.3753125 372.183125 46.6953125 373.203125 C46.3653125 359.673125 46.0353125 346.143125 45.6953125 332.203125 C15.0053125 332.203125 -15.6846875 332.203125 -47.3046875 332.203125 C-47.3046875 435.493125 -47.3046875 538.783125 -47.3046875 645.203125 C-14.9646875 645.203125 17.3753125 645.203125 50.6953125 645.203125 C50.5303125 630.95125 50.3653125 616.699375 50.1953125 602.015625 C50.10147999 593.4466313 50.00791505 584.8776647 49.921875 576.30859375 C49.90635527 574.76345124 49.90635527 574.76345124 49.890522 573.18709373 C49.64527828 548.52526749 49.47075607 523.86590513 49.6953125 499.203125 C49.70467834 497.98919067 49.70467834 497.98919067 49.7142334 496.75073242 C49.9108236 472.28088727 50.19215683 441.48657172 68.34765625 422.47265625 C80.00969939 411.76261663 94.69237247 410.92803546 109.8203125 410.765625 C110.99948242 410.74338867 112.17865234 410.72115234 113.39355469 410.69824219 C123.72334985 410.72420369 135.09192351 412.56218841 142.6953125 420.203125 C154.12264591 433.66308605 158.82920506 451.67303883 158.85353088 469.06822205 C158.85846886 469.82966021 158.86340684 470.59109837 158.86849445 471.37561041 C158.88377303 473.91047975 158.89220373 476.44532396 158.90063477 478.98022461 C158.91022088 480.80389626 158.92023139 482.62756573 158.93063354 484.45123291 C158.95760919 489.39072947 158.97865839 494.33023551 158.99863553 499.26976466 C159.02054048 504.43609125 159.04790707 509.60238884 159.07469177 514.76869202 C159.12455777 524.54679159 159.16951916 534.3249073 159.21271414 544.10303837 C159.2713831 557.31978857 159.33763717 570.53650062 159.40346432 583.75321674 C159.50694368 604.5698271 159.60029621 625.38647031 159.6953125 646.203125 C191.7053125 646.203125 223.7153125 646.203125 256.6953125 646.203125 C256.75589844 638.64792969 256.81648438 631.09273437 256.87890625 623.30859375 C256.91949734 618.46418831 256.96031924 613.61978694 257.00195312 608.77539062 C257.06772214 601.12021476 257.13272963 593.46503881 257.19262695 585.80981445 C257.24108079 579.62406059 257.29342899 573.43834987 257.34825325 567.25264931 C257.36831731 564.91650814 257.38707942 562.58035534 257.40438652 560.24419212 C257.50625809 546.62838889 257.78058518 533.03578214 258.34096432 519.43044567 C258.76224425 509.18717659 258.89566369 498.95433108 258.8828125 488.703125 C258.88220825 487.78766907 258.881604 486.87221313 258.88098145 485.92901611 C258.79910804 439.77937165 255.34741132 384.80602895 221.9296875 349.31640625 C200.70389745 329.24096496 174.19467212 323.751326 145.6328125 323.828125 C144.48502823 323.82894073 144.48502823 323.82894073 143.3140564 323.82977295 C110.63769518 323.93619258 80.820576 333.96804565 57.69921875 357.8984375 Z M-206.3046875 332.203125 C-206.3046875 435.493125 -206.3046875 538.783125 -206.3046875 645.203125 C-174.6246875 645.203125 -142.9446875 645.203125 -110.3046875 645.203125 C-110.3046875 541.913125 -110.3046875 438.623125 -110.3046875 332.203125 C-141.9846875 332.203125 -173.6646875 332.203125 -206.3046875 332.203125 Z " fill="#7B7B7B" transform="translate(490.3046875,43.796875)"/>
</svg>
