<svg version="1.1" xmlns="http://www.w3.org/2000/svg" width="800" height="800">
  <defs>
    <filter id="light-grayscale">
      <feColorMatrix type="matrix" values="0.5 0.9 0.5 0 0
                                           0.5 0.9 0.5 0 0
                                           0.5 0.9 0.5 0 0
                                           0   0   0   1 0"/>
    </filter>
  </defs>
  <g filter="url(#light-grayscale)">
    <!-- Your existing paths go here -->
    <path d="M0 0 C3.64523698 0.01611208 7.28936587 0.00000862 10.93457031 -0.01904297 C32.31465319 -0.03838822 53.61516901 1.68555297 74.64550781 5.64111328 C75.78536133 5.8523584 76.92521484 6.06360352 78.09960938 6.28125 C109.62501239 12.30193637 140.04904522 21.81944206 169.19970703 35.26513672 C171.46639239 36.30865367 173.74283959 37.32599184 176.02441406 38.33642578 C194.91185662 46.81582341 212.71018373 57.52355664 229.64550781 69.39111328 C230.40734375 69.92236816 231.16917969 70.45362305 231.95410156 71.00097656 C241.30835808 77.55167991 250.27733864 84.35501684 258.86621094 91.8828125 C260.20772308 93.02000542 261.5758895 94.12586315 262.95605469 95.21582031 C270.60494416 101.28174425 277.49736019 107.93604335 284.37109375 114.85595703 C286.2676672 116.76325661 288.17471086 118.65961387 290.08300781 120.55517578 C297.06652143 127.53114395 303.52223128 134.6413925 309.64550781 142.39111328 C310.59141473 143.5051747 311.54454343 144.61319853 312.50878906 145.71142578 C329.00929309 164.6067398 342.73259156 186.28217376 354.54736328 208.359375 C355.54636416 210.20768209 356.58042203 212.03693256 357.61816406 213.86376953 C377.00422344 248.53575663 389.09842232 288.25963089 396.33300781 327.14111328 C396.5237085 328.14980469 396.71440918 329.15849609 396.91088867 330.19775391 C400.67157438 351.58223849 402.14998923 373.0545012 402.03662109 394.74560547 C402.02050901 398.39084245 402.03661247 402.03497134 402.05566406 405.68017578 C402.07500931 427.06025866 400.35106813 448.36077448 396.39550781 469.39111328 C396.1842627 470.5309668 395.97301758 471.67082031 395.75537109 472.84521484 C389.73422729 504.37301303 380.21621304 534.79803174 366.76708984 563.94970703 C365.7325146 566.20172105 364.72932861 568.46471411 363.73535156 570.73486328 C352.86794843 595.16485486 337.81843653 618.15059081 321.64550781 639.39111328 C321.18112305 640.00116211 320.71673828 640.61121094 320.23828125 641.23974609 C315.04157992 648.03101231 309.71744705 654.62818694 303.91113281 660.91455078 C302.66827403 662.27312401 301.43309871 663.6394759 300.23632812 665.03881836 C295.24324088 670.87285453 289.89457084 676.32819776 284.46777344 681.75415039 C282.90690455 683.31720062 281.35422893 684.88808693 279.80175781 686.45947266 C273.40744715 692.88916555 266.75679108 698.74867226 259.64550781 704.39111328 C258.61781609 705.25433288 257.59439706 706.12272213 256.57910156 707.00048828 C237.92896461 722.99465894 217.00927714 736.33766214 195.64550781 748.39111328 C194.93797363 748.79152832 194.23043945 749.19194336 193.50146484 749.60449219 C156.91747374 770.09581858 116.01227192 783.4281142 74.89550781 791.07861328 C73.88681641 791.26931396 72.878125 791.46001465 71.83886719 791.65649414 C50.4543826 795.41717985 28.98211989 796.8955947 7.29101562 796.78222656 C3.64577864 796.76611448 0.00164975 796.78221794 -3.64355469 796.80126953 C-25.02363757 796.82061478 -46.32415339 795.0966736 -67.35449219 791.14111328 C-68.4943457 790.92986816 -69.63419922 790.71862305 -70.80859375 790.50097656 C-102.33399677 784.48029019 -132.7580296 774.96278451 -161.90869141 761.51708984 C-164.17537676 760.47357289 -166.45182396 759.45623473 -168.73339844 758.44580078 C-187.620841 749.96640315 -205.41916811 739.25866993 -222.35449219 727.39111328 C-223.49724609 726.59423096 -223.49724609 726.59423096 -224.66308594 725.78125 C-234.01734246 719.23054665 -242.98632301 712.42720973 -251.57519531 704.89941406 C-252.91670745 703.76222114 -254.28487388 702.65636341 -255.66503906 701.56640625 C-263.31392854 695.50048231 -270.20634456 688.84618321 -277.08007812 681.92626953 C-278.97665158 680.01896996 -280.88369524 678.12261269 -282.79199219 676.22705078 C-289.77550581 669.25108261 -296.23121565 662.14083406 -302.35449219 654.39111328 C-303.30039911 653.27705187 -304.2535278 652.16902803 -305.21777344 651.07080078 C-321.71827746 632.17548676 -335.44157593 610.5000528 -347.25634766 588.42285156 C-348.25534853 586.57454447 -349.2894064 584.745294 -350.32714844 582.91845703 C-369.71320782 548.24646993 -381.80740669 508.52259568 -389.04199219 469.64111328 C-389.23269287 468.63242187 -389.42339355 467.62373047 -389.61987305 466.58447266 C-393.38055876 445.19998807 -394.85897361 423.72772536 -394.74560547 402.03662109 C-394.72949338 398.39138411 -394.74559685 394.74725522 -394.76464844 391.10205078 C-394.78399369 369.7219679 -393.0600525 348.42145208 -389.10449219 327.39111328 C-388.89324707 326.25125977 -388.68200195 325.11140625 -388.46435547 323.93701172 C-382.4436691 292.4116087 -372.92616341 261.98757587 -359.48046875 232.83691406 C-358.4369518 230.57022871 -357.41961363 228.29378151 -356.40917969 226.01220703 C-347.92978206 207.12476447 -337.22204883 189.32643736 -325.35449219 172.39111328 C-324.8232373 171.62927734 -324.29198242 170.86744141 -323.74462891 170.08251953 C-317.19392556 160.72826301 -310.39058863 151.75928246 -302.86279297 143.17041016 C-301.72560005 141.82889802 -300.61974232 140.46073159 -299.52978516 139.08056641 C-293.46386122 131.43167693 -286.80956212 124.5392609 -279.88964844 117.66552734 C-277.98234886 115.76895389 -276.08599159 113.86191023 -274.19042969 111.95361328 C-267.21446152 104.97009966 -260.10421297 98.51438982 -252.35449219 92.39111328 C-251.24043077 91.44520636 -250.13240694 90.49207767 -249.03417969 89.52783203 C-230.13886567 73.027328 -208.46343171 59.30402954 -186.38623047 47.48925781 C-184.53792338 46.49025694 -182.70867291 45.45619907 -180.88183594 44.41845703 C-146.20984884 25.03239765 -106.48597458 12.93819878 -67.60449219 5.70361328 C-66.59580078 5.5129126 -65.58710938 5.32221191 -64.54785156 5.12573242 C-43.16336698 1.36504671 -21.69110427 -0.11336814 0 0 Z " fill="#1C4980" transform="translate(396.3544921875,1.60888671875)"/>
    <path d="M0 0 C27.39 0 54.78 0 83 0 C83.01458252 6.43443604 83.02916504 12.86887207 83.04418945 19.49829102 C83.09455636 40.77236711 83.16100615 62.04637061 83.23571491 83.32037449 C83.28061308 96.21707401 83.32004152 109.11374628 83.34643555 122.01049805 C83.36946406 133.25591292 83.40291621 144.50124114 83.44870156 155.74658722 C83.47256832 161.69671298 83.49133996 167.64675326 83.49761391 173.59692574 C83.50369442 179.20707519 83.52380082 184.81700613 83.55427551 190.42707443 C83.56300839 192.47676891 83.56678827 194.52649199 83.56500816 196.5762043 C83.55367083 215.66861423 84.49202907 235.31162518 98.546875 249.80859375 C110.80229949 260.75651276 125.55596391 262.54750707 141.39794922 261.90234375 C150.73033921 261.30482566 159.46890794 260.02635653 168 256 C168.91007813 255.57847656 169.82015625 255.15695312 170.7578125 254.72265625 C185.39170675 247.36494619 194.46391533 236.17922357 200.0546875 220.98046875 C201.83122173 215.37924718 202.15118601 210.16639862 202.15821838 204.31242371 C202.16315636 203.43835493 202.16809434 202.56428615 202.17318195 201.66373044 C202.18853666 198.73570174 202.1969121 195.80769494 202.20532227 192.87963867 C202.21490238 190.78040372 202.22491254 188.6811707 202.23532104 186.5819397 C202.2623617 180.88201665 202.28337585 175.18208532 202.30332303 169.48213363 C202.32518772 163.52569683 202.35257406 157.56928551 202.37937927 151.61286926 C202.42929959 140.33306413 202.4742409 129.05324485 202.51740164 117.77341205 C202.56677963 104.93192745 202.62169569 92.09046841 202.67708123 79.24900854 C202.79089115 52.83269503 202.89700127 26.41635803 203 0 C230.72 0 258.44 0 287 0 C287 105.6 287 211.2 287 320 C259.28 320 231.56 320 203 320 C202.67 308.45 202.34 296.9 202 285 C198.7 289.29 195.4 293.58 192 298 C189.77945396 300.51401028 187.62335547 302.90516089 185.25 305.25 C184.66420166 305.83007812 184.07840332 306.41015625 183.47485352 307.0078125 C174.07286953 316.03732893 163.02057254 322.05411862 151 327 C150.26910156 327.30550781 149.53820312 327.61101562 148.78515625 327.92578125 C135.76369882 332.79945534 121.50142608 333.55401657 107.75 333.4375 C106.61445175 333.43343643 106.61445175 333.43343643 105.45596313 333.42929077 C92.98286388 333.36191292 81.05434042 332.43130285 69 329 C68.33822754 328.81276367 67.67645508 328.62552734 66.99462891 328.43261719 C53.89972775 324.56131376 42.16434009 318.0883106 32 309 C31.16726562 308.26136719 30.33453125 307.52273438 29.4765625 306.76171875 C9.6880453 288.16051258 0.88662834 259.79298725 -0.3572464 233.19150162 C-0.53342224 226.98163419 -0.49658729 220.77450326 -0.45410156 214.56298828 C-0.4529699 212.20509358 -0.45361314 209.84719748 -0.45587158 207.48930359 C-0.45700722 201.16216842 -0.43368648 194.83534398 -0.40557575 188.50828028 C-0.38293072 182.54366961 -0.37906657 176.57905709 -0.37496826 170.61441158 C-0.36626547 158.8190553 -0.339788 147.02381119 -0.30175781 135.22851562 C-0.26490651 123.78678946 -0.23665946 112.34509403 -0.21972656 100.90332031 C-0.21867567 100.19520829 -0.21762477 99.48709626 -0.21654204 98.75752629 C-0.21132098 95.20428741 -0.20626636 91.65104832 -0.20129442 88.09780908 C-0.15998902 58.73178834 -0.08633717 29.36592807 0 0 Z " fill="#FDFEFE" transform="translate(86,254)"/>
    <path d="M0 0 C22.199019 19.74002219 30.95457502 47.20737149 33.4375 76.0625 C33.56494957 79.28430658 33.56876214 82.50061589 33.55775452 85.72462463 C33.55903615 87.12048362 33.55903615 87.12048362 33.56034368 88.54454178 C33.56198115 91.63982199 33.55650566 94.73504711 33.55102539 97.83032227 C33.55074312 100.05822244 33.55090204 102.28612271 33.5514679 104.51402283 C33.55175431 110.54636353 33.54588278 116.57868426 33.53889394 122.61102033 C33.53263444 128.92109402 33.53205455 135.23116819 33.53086853 141.54124451 C33.52811552 152.12719053 33.52187314 162.71313003 33.51293945 173.29907227 C33.50375028 184.199137 33.49667681 195.09919975 33.49243164 205.99926758 C33.49203756 207.00831231 33.49203756 207.00831231 33.49163551 208.03774179 C33.4903304 211.41270617 33.48906671 214.78767056 33.48782361 218.16263497 C33.4774691 246.12926287 33.45904057 274.09587835 33.4375 302.0625 C5.7175 302.0625 -22.0025 302.0625 -50.5625 302.0625 C-50.5718457 295.78476562 -50.58119141 289.50703125 -50.59082031 283.0390625 C-50.62461767 262.27588041 -50.67998239 241.51279696 -50.74640274 220.74969482 C-50.78614076 208.16353147 -50.81855985 195.57743018 -50.83349609 182.99121094 C-50.84653975 172.01568149 -50.87357363 161.04028887 -50.91711307 150.0648365 C-50.93966678 144.25829233 -50.95541434 138.45191656 -50.95438385 132.64532471 C-50.95363364 127.16890263 -50.97172879 121.69285193 -51.00366783 116.21652603 C-51.01211746 114.21724265 -51.01395075 112.21791737 -51.00830269 110.21862411 C-50.9644329 92.28748219 -52.54835372 74.53248125 -65.3125 60.6875 C-69.55891001 56.73979183 -74.16491839 54.13230433 -79.5625 52.0625 C-80.23361816 51.80355957 -80.90473633 51.54461914 -81.59619141 51.27783203 C-89.08271658 48.68782404 -96.31894345 48.52397948 -104.1875 48.5625 C-105.18228867 48.56464508 -105.18228867 48.56464508 -106.19717407 48.5668335 C-116.88876432 48.62393446 -125.81946323 49.5657138 -135.5625 54.0625 C-136.56667969 54.50851562 -137.57085938 54.95453125 -138.60546875 55.4140625 C-152.94452564 62.4945899 -162.14997336 74.23661053 -167.25175476 89.2121582 C-170.32280383 98.93883099 -170.27151347 108.49134685 -170.22192383 118.60546875 C-170.23039597 120.61766547 -170.24104867 122.62985398 -170.25369263 124.64202881 C-170.28162361 130.05424821 -170.27940574 135.46606838 -170.27139878 140.87833786 C-170.26825556 146.55314618 -170.29336098 152.22783135 -170.31535339 157.90258789 C-170.35267946 168.62603268 -170.3649346 179.34935068 -170.3679778 190.07285404 C-170.37268107 202.29070749 -170.40564502 214.50843492 -170.44087565 226.72623253 C-170.51266011 251.83833845 -170.54557355 276.95029305 -170.5625 302.0625 C-197.9525 302.0625 -225.3425 302.0625 -253.5625 302.0625 C-253.5625 196.4625 -253.5625 90.8625 -253.5625 -17.9375 C-226.1725 -17.9375 -198.7825 -17.9375 -170.5625 -17.9375 C-170.2325 -3.7475 -169.9025 10.4425 -169.5625 25.0625 C-165.2725 19.7825 -160.9825 14.5025 -156.5625 9.0625 C-119.17979252 -31.95463737 -42.3302164 -35.9141234 0 0 Z " fill="#FDFEFE" transform="translate(705.5625,271.9375)"/>
  </g>
</svg>