<?xml version="1.0" standalone="no"?>
<!DOCTYPE svg PUBLIC "-//W3C//DTD SVG 20010904//EN"
 "http://www.w3.org/TR/2001/REC-SVG-20010904/DTD/svg10.dtd">
<svg version="1.0" xmlns="http://www.w3.org/2000/svg"
 width="7730.000000pt" height="7730.000000pt" viewBox="0 0 7730.000000 7730.000000"
 preserveAspectRatio="xMidYMid meet">

<g transform="translate(0.000000,7730.000000) scale(0.100000,-0.100000)"
fill="#000000" stroke="none">
<path d="M45585 66636 c1849 -656 3542 -1619 4915 -2796 485 -416 977 -906
1383 -1380 1121 -1305 2000 -2886 2590 -4660 77 -230 208 -661 253 -830 9 -36
20 -68 23 -72 6 -7 2282 60 2289 66 1 2 -31 102 -72 223 -639 1883 -1550 3473
-2769 4833 -175 194 -744 763 -938 936 -1004 898 -2085 1623 -3344 2244 -1334
658 -2754 1139 -4293 1454 -95 20 -176 36 -180 35 -4 0 61 -24 143 -53z"/>
<path d="M36510 61664 c-828 -34 -1633 -163 -2345 -374 -1832 -545 -2935
-1567 -3120 -2890 -9 -63 -18 -128 -20 -145 -13 -85 -16 -417 -6 -565 45 -644
225 -1259 575 -1960 194 -388 349 -656 754 -1305 492 -787 675 -1099 838
-1429 256 -516 429 -1090 469 -1556 4 -41 9 -86 11 -100 12 -77 15 -414 5
-555 -15 -206 -17 -221 -47 -400 -160 -967 -697 -1873 -1549 -2615 -627 -547
-1429 -994 -2295 -1279 -814 -267 -1636 -345 -2418 -226 -118 17 -359 68 -434
90 -28 8 -54 13 -56 10 -9 -9 318 -163 440 -208 594 -216 1540 -383 2638 -464
342 -25 1287 -25 1550 0 456 43 707 101 1103 253 l94 36 6 106 c9 151 24 194
109 304 258 335 597 707 1055 1158 301 297 687 655 706 655 20 0 77 -85 93
-142 19 -65 14 -122 -16 -190 -21 -48 -39 -67 -401 -444 l-218 -225 61 -100
c33 -54 82 -136 108 -182 l48 -82 109 84 c544 423 997 940 1310 1494 678 1201
690 2568 33 3907 -144 294 -336 621 -775 1325 -466 747 -620 1013 -819 1410
-195 390 -309 676 -411 1030 -109 378 -163 713 -172 1080 -6 252 3 411 38 622
186 1148 1051 2056 2504 2631 756 299 1594 483 2565 563 228 18 874 29 1070
17 80 -5 146 -9 147 -8 1 0 -42 20 -95 44 -784 352 -1544 544 -2422 611 -135
11 -679 20 -820 14z"/>
<path d="M56725 48354 c-566 -29 -2114 -104 -2136 -104 -11 0 -34 -45 -77
-152 -376 -945 -862 -1853 -1512 -2828 -578 -869 -985 -1368 -1674 -2055 -591
-590 -1079 -1014 -2316 -2010 -1416 -1141 -1874 -1538 -2530 -2195 -1174
-1176 -2172 -2487 -3004 -3948 -1622 -2845 -2570 -6202 -2821 -9982 -25 -376
-44 -814 -55 -1250 -5 -228 -12 -439 -14 -468 -12 -149 -147 -292 -301 -321
-25 -5 -957 2 -2122 15 -1143 13 -2190 23 -2328 21 l-250 -2 215 -72 c523
-174 1655 -467 2160 -557 72 -13 459 -19 2452 -42 2643 -29 2419 -33 2528 43
30 21 72 63 92 93 54 79 68 146 68 325 0 609 61 1700 141 2500 568 5742 2798
10409 6579 13771 385 342 785 674 1710 1419 1229 990 1734 1428 2320 2015 676
675 1107 1207 1683 2075 794 1198 1368 2349 1746 3507 39 120 71 220 71 223 0
8 -143 4 -625 -21z"/>
<path d="M23261 47075 c-158 -45 -334 -178 -482 -368 -76 -97 -116 -93 -207
16 -236 282 -551 403 -847 327 -222 -57 -446 -212 -557 -385 -74 -116 -105
-212 -114 -350 -4 -63 -11 -98 -24 -115 -20 -28 -16 -28 -256 -15 -309 17
-544 -63 -729 -249 -94 -94 -158 -193 -216 -331 -142 -339 -127 -627 42 -835
57 -70 62 -84 45 -124 -11 -25 -24 -37 -53 -46 -218 -70 -343 -256 -343 -510
0 -174 41 -282 142 -375 64 -60 130 -94 233 -121 56 -15 107 -19 261 -19 l192
0 163 -160 c90 -88 214 -200 274 -249 233 -187 523 -360 730 -435 104 -38 283
-81 338 -81 48 0 87 36 87 79 0 25 -147 471 -164 500 -3 5 -39 15 -79 21 -243
41 -456 170 -524 317 -40 86 -44 192 -10 267 34 73 76 96 181 96 92 0 198 -31
344 -101 111 -53 117 -54 170 -6 37 34 28 68 -47 193 -93 153 -164 300 -207
431 -20 59 -40 112 -45 118 -33 35 22 99 128 147 99 45 195 73 538 159 549
139 806 224 1090 364 187 92 311 173 423 280 182 172 252 336 252 592 0 415
-191 819 -443 939 -92 43 -196 54 -286 29z"/>
<path d="M27330 41033 c-522 -160 -1240 -311 -1790 -377 -455 -54 -640 -64
-1283 -65 -296 -1 -589 -4 -650 -6 -62 -3 -203 -10 -315 -15 -112 -6 -225 -10
-252 -10 l-49 0 -31 -66 c-44 -90 -122 -166 -250 -241 -341 -198 -677 -315
-1015 -353 -135 -15 -387 -12 -527 6 -227 29 -479 105 -670 200 -95 48 -118
71 -118 121 0 29 -3 33 -22 28 -13 -3 -133 -23 -268 -45 -507 -84 -1189 -218
-1660 -325 -135 -31 -278 -63 -318 -72 -68 -16 -82 -24 -263 -160 -568 -426
-1123 -935 -1590 -1458 -770 -863 -1277 -1756 -1475 -2595 -19 -80 -34 -151
-34 -157 0 -8 15 -13 41 -13 23 0 121 -9 218 -20 733 -85 1427 -274 2026 -552
83 -38 155 -72 161 -74 7 -3 18 24 29 68 35 146 101 300 193 455 74 126 204
302 209 286 3 -7 0 -158 -7 -335 -6 -178 -13 -614 -17 -970 l-6 -647 44 -41
c125 -113 310 -218 498 -280 216 -72 407 -100 686 -100 584 0 1289 174 2115
522 154 65 570 263 615 292 20 13 20 17 8 132 -15 145 -16 328 -3 408 5 33 26
110 46 170 127 387 326 575 646 611 53 6 58 9 67 38 6 18 168 583 361 1257
192 674 358 1242 367 1263 21 49 65 82 123 96 64 15 1522 171 1599 171 15 0
22 9 27 38 9 51 38 96 71 111 16 7 164 27 329 44 l301 31 38 159 c29 122 43
165 60 181 19 18 118 37 671 129 357 59 657 107 667 107 28 0 77 -54 77 -84 0
-15 -23 -96 -51 -182 -28 -85 -48 -158 -45 -161 3 -3 121 6 263 21 320 33 328
33 369 1 43 -33 59 -83 45 -140 -6 -24 -11 -45 -11 -47 0 -2 267 -3 593 -1
325 2 598 3 605 3 21 0 13 16 -45 86 -499 607 -902 1427 -1152 2347 -28 100
-53 199 -57 220 -8 47 -9 47 -194 -10z"/>
<path d="M21585 32978 c-261 -165 -956 -528 -1305 -683 -910 -402 -1738 -620
-2474 -651 l-158 -7 6 -151 c4 -83 9 -187 11 -231 3 -44 12 -204 20 -355 37
-661 98 -1448 161 -2065 22 -219 34 -376 31 -420 -3 -38 -21 -196 -41 -351
-58 -453 -135 -1266 -161 -1699 -3 -55 -8 -125 -10 -155 -9 -98 -34 -598 -45
-870 -6 -146 -12 -317 -15 -380 -24 -586 -24 -2629 0 -3010 2 -36 7 -168 10
-295 3 -126 8 -266 10 -310 2 -44 7 -152 10 -240 3 -88 8 -205 10 -260 3 -55
7 -158 10 -230 6 -129 50 -887 60 -1040 3 -44 12 -181 20 -305 116 -1719 312
-3599 540 -5181 130 -902 301 -1853 354 -1974 61 -137 190 -180 541 -180 200
0 308 13 430 51 137 43 192 114 204 264 3 47 13 668 21 1380 14 1227 28 2196
40 2685 26 1094 34 1373 60 2090 7 178 14 354 20 475 3 52 7 167 10 255 4 88
8 185 10 215 2 30 7 125 10 210 3 85 8 175 10 200 2 25 7 101 10 170 5 116 8
179 20 370 2 41 7 129 10 195 4 66 8 136 10 155 2 19 7 87 10 150 3 63 8 135
10 160 3 25 12 151 20 280 8 129 17 260 20 290 3 30 19 217 35 415 51 609 133
1422 149 1475 5 18 10 -3 14 -70 11 -148 54 -594 93 -945 274 -2508 778 -5249
1484 -8075 230 -920 555 -2112 601 -2201 29 -58 113 -127 178 -145 142 -42
607 22 939 128 161 51 215 79 247 125 37 55 33 104 -35 409 -180 813 -344
1861 -470 2999 -17 154 -32 296 -35 315 -8 70 -15 136 -20 195 -3 33 -10 98
-15 145 -6 47 -15 137 -20 200 -6 63 -22 241 -35 395 -14 154 -27 305 -30 335
-4 49 -16 186 -30 370 -5 56 -24 307 -40 530 -3 36 -10 135 -15 220 -6 85 -12
178 -15 205 -2 28 -7 100 -10 160 -3 61 -8 130 -10 155 -3 25 -7 104 -10 175
-3 72 -8 150 -10 175 -3 25 -7 92 -10 150 -3 58 -12 231 -20 385 -8 154 -17
325 -20 380 -74 1401 -126 3292 -146 5355 -17 1666 -12 1945 51 2880 48 726
51 762 86 930 79 386 263 1162 436 1840 55 217 103 405 106 418 l4 22 -408 1
c-225 1 -697 4 -1049 8 -696 7 -667 4 -722 63 -26 28 -53 88 -53 120 0 13 78
296 174 631 95 334 173 607 172 607 -1 0 -23 -15 -51 -32z"/>
<path d="M40065 20319 c790 -226 1446 -584 2090 -1139 195 -168 559 -567 733
-802 333 -451 604 -978 775 -1505 426 -1309 318 -2753 -297 -3981 -257 -513
-576 -953 -995 -1373 -1100 -1101 -2629 -1654 -4186 -1513 -88 7 -180 16 -205
19 l-45 5 45 -16 c129 -44 432 -90 780 -118 535 -44 1047 -60 2005 -60 924 -1
945 0 1287 60 1302 227 2341 1023 3020 2314 333 631 567 1432 657 2245 48 426
59 953 27 1245 -85 789 -370 1503 -864 2167 -956 1285 -2578 2197 -4307 2422
-136 18 -308 33 -515 46 l-75 4 70 -20z"/>
<path d="M22860 11672 c0 -6 -20 -152 -45 -324 -52 -367 -89 -676 -106 -886
-10 -120 -10 -164 0 -219 33 -182 172 -338 350 -394 71 -22 377 -38 1441 -74
941 -31 1129 -36 1795 -42 743 -7 836 -3 887 30 38 26 78 98 78 142 0 71 -94
207 -172 248 -48 25 -3183 1465 -3185 1463 -1 -1 6 -35 17 -76 22 -85 27 -77
-80 -134 -191 -100 -431 -118 -705 -52 -102 25 -213 62 -229 76 -4 5 -15 61
-23 126 -8 65 -16 120 -19 123 -2 2 -4 -1 -4 -7z"/>
<path d="M18808 11433 c-116 -255 -249 -698 -353 -1170 -46 -211 -47 -286 -4
-371 36 -72 92 -124 163 -151 85 -31 674 -78 1111 -87 260 -6 272 -6 326 15
75 29 141 88 176 159 24 49 28 68 27 137 -2 143 -67 444 -143 667 -58 169
-123 310 -205 451 -84 144 -249 367 -271 367 -4 0 -3 -47 1 -104 l7 -105 -39
-10 c-161 -42 -387 -47 -519 -12 -99 26 -185 67 -185 88 0 8 -7 55 -16 104
-12 63 -21 89 -31 89 -8 0 -28 -30 -45 -67z"/>
</g>
</svg>
